# xmcd
#
# Track frame offsets: 
#        182
#        21412
#        43165
#        71725
#        91850
#        123445
#        144437
#        166935
#        171630
#        186200
#        207075
#
# Disc length: 3054 seconds
#
# Revision: 2
# Processed by: cddbd v1.5.2PL0 Copyright (c) Steve Scherf et al.
# Submitted via: ExactAudioCopy v0.99pb3
#
DISCID=9f0bec0b
DTITLE=Nuno Mindelis - Long Distant Blues
DYEAR=1992
DGENRE=Blues
TTITLE0=It's Your Fault
TTITLE1=Three Days Straight
TTITLE2=It's My Turn
TTITLE3=Don't Hide Away
TTITLE4=Talk About The Blues
TTITLE5=Pay The Cost To Be The Boss
TTITLE6=Blues Time
TTITLE7=Iberic Blues
TTITLE8=Dog's Day Night
TTITLE9=Talk About Somebody
TTITLE10=Answer To Ronnie
EXTD=
EXTT0=
EXTT1=
EXTT2=
EXTT3=
EXTT4=
EXTT5=
EXTT6=
EXTT7=
EXTT8=
EXTT9=
EXTT10=
PLAYORDER=
